<?xml version="1.0" encoding="UTF-8"?><svg id="Lag_2" xmlns="http://www.w3.org/2000/svg" viewBox="0 0 454.08 269.98"><defs><style>.cls-1{fill:#fff;}</style></defs><g id="Lag_1-2"><path class="cls-1" d="m0,153.94v-56.7h29.16v5.95H6.8v18.79h21.76v5.95H6.8v26.01H0Z"/><path class="cls-1" d="m37.99,153.94v-56.7h6.04v56.7h-6.04Z"/><path class="cls-1" d="m69.87,111.86c10.8,0,16.24,9.69,16.24,21.68v1.87h-26.61c.25,8.25,4.51,14.45,11.82,14.45,3.57,0,7.23-1.78,9.78-5.01l3.23,3.57c-3.31,4.08-7.99,6.54-13.52,6.54-10.97,0-17.6-9.01-17.6-21.59,0-11.9,6.29-21.51,16.66-21.51Zm-10.37,19.04h20.57c-.09-6.29-2.81-13.94-10.29-13.94s-10.12,7.91-10.29,13.94Z"/><path class="cls-1" d="m114.41,153.94l-9.44-16.49-9.44,16.49h-6.8l12.5-20.91-11.82-20.15h6.8l8.76,15.64,8.76-15.64h6.8l-11.82,20.15,12.5,20.91h-6.8Z"/><path class="cls-1" d="m126.22,125.63c0-17,8.5-29.33,21.85-29.33,8.76,0,13.69,5.19,16.75,11.05l-5.61,2.64c-2.3-4.59-6.04-7.65-11.14-7.65-9.01,0-14.88,9.86-14.88,23.29s5.87,23.29,14.88,23.29c5.35,0,9.1-3.57,11.22-8.42l5.7,2.64c-3.15,6.29-7.99,11.82-16.92,11.82-13.35,0-21.85-12.41-21.85-29.33Z"/><path class="cls-1" d="m171.1,133.37c0-11.56,5.78-21.51,16.66-21.51s16.75,9.95,16.75,21.51-5.7,21.59-16.75,21.59-16.66-10.03-16.66-21.59Zm27.03,0c0-8.25-3.15-16.07-10.37-16.07s-10.29,7.82-10.29,16.07,3.23,16.15,10.29,16.15,10.37-7.82,10.37-16.15Z"/><path class="cls-1" d="m235.87,153.94v-29.24c0-5.44-2.46-7.4-6.54-7.4s-7.74,3.14-9.61,6.54v30.09h-6.04v-41.06h6.04v5.87c2.38-3.57,6.97-6.88,11.9-6.88,6.97,0,10.37,3.74,10.37,11.14v30.94h-6.12Z"/><path class="cls-1" d="m275.4,153.94v-29.24c0-5.44-2.46-7.4-6.54-7.4s-7.74,3.14-9.61,6.54v30.09h-6.04v-41.06h6.04v5.87c2.38-3.57,6.97-6.88,11.9-6.88,6.97,0,10.37,3.74,10.37,11.14v30.94h-6.12Z"/><path class="cls-1" d="m307.35,111.86c10.8,0,16.24,9.69,16.24,21.68v1.87h-26.61c.26,8.25,4.51,14.45,11.82,14.45,3.57,0,7.23-1.78,9.78-5.01l3.23,3.57c-3.32,4.08-7.99,6.54-13.52,6.54-10.97,0-17.6-9.01-17.6-21.59,0-11.9,6.29-21.51,16.66-21.51Zm-10.37,19.04h20.57c-.08-6.29-2.81-13.94-10.29-13.94s-10.12,7.91-10.29,13.94Z"/><path class="cls-1" d="m347.47,111.86c5.7,0,9.18,2.29,11.73,5.44l-3.32,4.17c-2.21-2.98-4.76-4.17-7.91-4.17-7.31,0-11.14,7.31-11.14,16.07s3.83,16.15,11.14,16.15c3.14,0,5.7-1.27,7.91-4.17l3.32,4.17c-2.55,3.23-6.04,5.44-11.73,5.44-10.54,0-17-9.44-17-21.59s6.46-21.51,17-21.51Z"/><path class="cls-1" d="m368.21,145.69v-27.46h-5.44v-5.36h5.44v-11.22h6.12v11.22h6.97v5.36h-6.97v26.35c0,3.14.94,4.93,3.32,4.93,1.53,0,2.8-.68,3.57-1.62l1.87,4.59c-1.45,1.45-3.49,2.46-6.63,2.46-5.61,0-8.25-3.14-8.25-9.27Z"/><path class="cls-1" d="m319.1,269.98c-30.62,0-60.61-10.54-84.44-29.67-23.47-18.84-40.17-45.27-47-74.4l5.52-1.29c6.54,27.91,22.53,53.22,45.03,71.27,23.16,18.59,51.13,28.42,80.9,28.42,71.3,0,129.31-58.01,129.31-129.32S390.4,5.67,319.1,5.67c-29.76,0-57.73,9.83-80.89,28.42-22.49,18.05-38.48,43.37-45.03,71.28l-5.52-1.29c6.84-29.14,23.53-55.56,47-74.4C258.49,10.53,288.48,0,319.1,0c74.43,0,134.98,60.56,134.98,134.99s-60.55,134.99-134.98,134.99Z"/></g></svg>