<svg id="assignment_add_black_24dp" xmlns="http://www.w3.org/2000/svg" width="47" height="47" viewBox="0 0 47 47">
    <g id="Group_1" data-name="Group 1">
        <rect id="Rectangle_8" data-name="Rectangle 8" width="47" height="47" fill="none"/>
    </g>
    <g id="Group_5" data-name="Group 5" transform="translate(5.039 1.68)">
        <g id="Group_4" data-name="Group 4">
            <g id="Group_2" data-name="Group 2" transform="translate(23.278 26.294)">
                <path id="Path_5" data-name="Path 5" d="M21.4,13a8.4,8.4,0,1,0,8.4,8.4A8.4,8.4,0,0,0,21.4,13Zm5.039,9.237h-4.2v4.2h-1.68v-4.2h-4.2v-1.68h4.2v-4.2h1.68v4.2h4.2Z" transform="translate(-13 -13)" fill="#fff"/>
            </g>
            <g id="Group_3" data-name="Group 3">
                <path id="Path_6" data-name="Path 6" d="M20.725,28.811a13.84,13.84,0,0,1,2.917-3.973H11.159V20.865H33.595a14.351,14.351,0,0,1,6.119,1.371V8.946a4.039,4.039,0,0,0-4.079-3.973H27.109a6.15,6.15,0,0,0-11.5,0H7.079A4.039,4.039,0,0,0,3,8.946V36.757A4.039,4.039,0,0,0,7.079,40.73H20.725a13.381,13.381,0,0,1-1.407-5.96,12.843,12.843,0,0,1,.163-1.987H11.159V28.811h9.566Zm.632-24.335a1.521,1.521,0,0,1,1.53,1.49,1.53,1.53,0,0,1-3.059,0A1.521,1.521,0,0,1,21.357,4.476Zm-10.2,8.443h20.4v3.973h-20.4Z" transform="translate(-3 -1)" fill="#fff"/>
            </g>
        </g>
    </g>
</svg>